<?xml version="1.0" encoding="UTF-8"?>
<svg xmlns="http://www.w3.org/2000/svg" xmlns:xlink="http://www.w3.org/1999/xlink" width="10pt" height="10pt" viewBox="0 0 10 10" version="1.1">
<g id="surface1">
<path style=" stroke:none;fill-rule:nonzero;fill:rgb(74.509804%,81.568627%,87.45098%);fill-opacity:1;" d="M 5.914062 5.007812 L 9.808594 1.113281 C 10.0625 0.863281 10.0625 0.453125 9.808594 0.199219 C 9.554688 -0.0546875 9.148438 -0.0546875 8.894531 0.199219 L 5 4.09375 L 1.105469 0.199219 C 0.851562 -0.0546875 0.445312 -0.0546875 0.191406 0.199219 C -0.0625 0.453125 -0.0625 0.863281 0.191406 1.113281 L 4.085938 5.007812 L 0.191406 8.902344 C -0.0625 9.15625 -0.0625 9.566406 0.191406 9.820312 C 0.316406 9.945312 0.484375 10.007812 0.648438 10.007812 C 0.8125 10.007812 0.980469 9.945312 1.105469 9.820312 L 5 5.925781 L 8.894531 9.820312 C 9.019531 9.945312 9.1875 10.007812 9.351562 10.007812 C 9.515625 10.007812 9.683594 9.945312 9.808594 9.820312 C 10.0625 9.566406 10.0625 9.15625 9.808594 8.902344 Z M 5.914062 5.007812 "/>
</g>
</svg>
