<?xml version="1.0" encoding="UTF-8"?>
<svg xmlns="http://www.w3.org/2000/svg" xmlns:xlink="http://www.w3.org/1999/xlink" width="40pt" height="40pt" viewBox="0 0 40 40" version="1.1">
<g id="surface1">
<path style=" stroke:none;fill-rule:nonzero;fill:rgb(74.509804%,81.568627%,87.45098%);fill-opacity:1;" d="M 40 20 C 40 31.046875 31.046875 40 20 40 C 8.953125 40 0 31.046875 0 20 C 0 8.953125 8.953125 0 20 0 C 31.046875 0 40 8.953125 40 20 Z M 40 20 "/>
<path style=" stroke:none;fill-rule:nonzero;fill:rgb(23.529412%,23.529412%,23.529412%);fill-opacity:1;" d="M 29.8125 6.199219 L 10.1875 6.199219 C 7.988281 6.199219 6.199219 7.988281 6.199219 10.1875 C 6.199219 12.386719 7.988281 14.179688 10.1875 14.179688 L 29.8125 14.179688 C 32.011719 14.179688 33.800781 12.386719 33.800781 10.1875 C 33.800781 7.988281 32.011719 6.199219 29.8125 6.199219 Z M 29.8125 12.023438 L 10.1875 12.023438 C 9.179688 12.023438 8.355469 11.199219 8.355469 10.1875 C 8.355469 9.179688 9.179688 8.355469 10.1875 8.355469 L 29.8125 8.355469 C 30.820312 8.355469 31.644531 9.179688 31.644531 10.1875 C 31.644531 11.199219 30.820312 12.023438 29.8125 12.023438 Z M 29.8125 12.023438 "/>
<path style=" stroke:none;fill-rule:nonzero;fill:rgb(23.529412%,23.529412%,23.529412%);fill-opacity:1;" d="M 29.8125 16.011719 L 10.1875 16.011719 C 7.988281 16.011719 6.199219 17.800781 6.199219 20 C 6.199219 22.199219 7.988281 23.988281 10.1875 23.988281 L 29.8125 23.988281 C 32.011719 23.988281 33.800781 22.199219 33.800781 20 C 33.800781 17.800781 32.011719 16.011719 29.8125 16.011719 Z M 29.8125 21.832031 L 10.1875 21.832031 C 9.179688 21.832031 8.355469 21.011719 8.355469 20 C 8.355469 18.988281 9.179688 18.167969 10.1875 18.167969 L 29.8125 18.167969 C 30.820312 18.167969 31.644531 18.988281 31.644531 20 C 31.644531 21.011719 30.820312 21.832031 29.8125 21.832031 Z M 29.8125 21.832031 "/>
<path style=" stroke:none;fill-rule:nonzero;fill:rgb(23.529412%,23.529412%,23.529412%);fill-opacity:1;" d="M 29.8125 25.820312 L 10.1875 25.820312 C 7.988281 25.820312 6.199219 27.613281 6.199219 29.8125 C 6.199219 32.011719 7.988281 33.800781 10.1875 33.800781 L 24.421875 33.800781 C 25.015625 33.800781 25.5 33.316406 25.5 32.722656 C 25.5 32.125 25.015625 31.644531 24.421875 31.644531 L 10.1875 31.644531 C 9.179688 31.644531 8.355469 30.820312 8.355469 29.8125 C 8.355469 28.800781 9.179688 27.976562 10.1875 27.976562 L 29.8125 27.976562 C 30.820312 27.976562 31.644531 28.800781 31.644531 29.8125 C 31.644531 30.820312 30.820312 31.644531 29.8125 31.644531 C 29.214844 31.644531 28.734375 32.125 28.734375 32.722656 C 28.734375 33.316406 29.214844 33.800781 29.8125 33.800781 C 32.011719 33.800781 33.800781 32.011719 33.800781 29.8125 C 33.800781 27.613281 32.011719 25.820312 29.8125 25.820312 Z M 29.8125 25.820312 "/>
</g>
</svg>
