<?xml version="1.0" encoding="UTF-8"?>
<svg xmlns="http://www.w3.org/2000/svg" xmlns:xlink="http://www.w3.org/1999/xlink" width="20pt" height="20pt" viewBox="0 0 20 20" version="1.1">
<g id="surface1">
<path style=" stroke:none;fill-rule:nonzero;fill:rgb(100%,25.882353%,25.882353%);fill-opacity:1;" d="M 19.582031 5.417969 L 0.417969 5.417969 C 0.1875 5.417969 0 5.601562 0 5.832031 L 0 14.167969 C 0 14.398438 0.1875 14.582031 0.417969 14.582031 L 19.582031 14.582031 C 19.8125 14.582031 20 14.398438 20 14.167969 L 20 5.832031 C 20 5.601562 19.8125 5.417969 19.582031 5.417969 Z M 7.5 11.667969 C 7.5 11.847656 7.386719 12.003906 7.214844 12.0625 C 7.171875 12.078125 7.128906 12.082031 7.082031 12.082031 C 6.953125 12.082031 6.828125 12.023438 6.75 11.917969 L 5 9.582031 L 5 11.667969 C 5 11.898438 4.8125 12.082031 4.582031 12.082031 C 4.351562 12.082031 4.167969 11.898438 4.167969 11.667969 L 4.167969 8.332031 C 4.167969 8.152344 4.28125 7.996094 4.453125 7.9375 C 4.621094 7.878906 4.808594 7.941406 4.917969 8.082031 L 6.667969 10.417969 L 6.667969 8.332031 C 6.667969 8.101562 6.851562 7.917969 7.082031 7.917969 C 7.3125 7.917969 7.5 8.101562 7.5 8.332031 Z M 10.417969 9.582031 C 10.648438 9.582031 10.832031 9.769531 10.832031 10 C 10.832031 10.230469 10.648438 10.417969 10.417969 10.417969 L 9.167969 10.417969 L 9.167969 11.25 L 10.417969 11.25 C 10.648438 11.25 10.832031 11.4375 10.832031 11.667969 C 10.832031 11.898438 10.648438 12.082031 10.417969 12.082031 L 8.75 12.082031 C 8.519531 12.082031 8.332031 11.898438 8.332031 11.667969 L 8.332031 8.332031 C 8.332031 8.101562 8.519531 7.917969 8.75 7.917969 L 10.417969 7.917969 C 10.648438 7.917969 10.832031 8.101562 10.832031 8.332031 C 10.832031 8.5625 10.648438 8.75 10.417969 8.75 L 9.167969 8.75 L 9.167969 9.582031 Z M 15.820312 8.433594 L 14.988281 11.765625 C 14.941406 11.949219 14.785156 12.074219 14.597656 12.082031 C 14.59375 12.082031 14.589844 12.082031 14.582031 12.082031 C 14.40625 12.082031 14.246094 11.96875 14.1875 11.796875 L 13.75 10.484375 L 13.3125 11.796875 C 13.253906 11.972656 13.089844 12.101562 12.902344 12.082031 C 12.714844 12.074219 12.558594 11.945312 12.511719 11.765625 L 11.679688 8.433594 C 11.625 8.210938 11.757812 7.984375 11.984375 7.929688 C 12.203125 7.875 12.433594 8.007812 12.488281 8.234375 L 12.972656 10.175781 L 13.355469 9.035156 C 13.46875 8.695312 14.03125 8.695312 14.144531 9.035156 L 14.527344 10.175781 L 15.011719 8.234375 C 15.066406 8.007812 15.292969 7.871094 15.515625 7.929688 C 15.742188 7.984375 15.875 8.210938 15.820312 8.433594 Z M 15.820312 8.433594 "/>
</g>
</svg>
