<?xml version="1.0" encoding="UTF-8"?>
<svg xmlns="http://www.w3.org/2000/svg" xmlns:xlink="http://www.w3.org/1999/xlink" width="32pt" height="32pt" viewBox="0 0 32 32" version="1.1">
<g id="surface1">
<path style=" stroke:none;fill-rule:nonzero;fill:rgb(23.529412%,23.529412%,23.529412%);fill-opacity:1;" d="M 31.214844 3.984375 C 30.695312 3.460938 30.066406 3.199219 29.332031 3.199219 L 2.667969 3.199219 C 1.933594 3.199219 1.304688 3.460938 0.785156 3.984375 C 0.261719 4.503906 0 5.132812 0 5.867188 L 0 26.132812 C 0 26.867188 0.261719 27.496094 0.785156 28.015625 C 1.304688 28.539062 1.933594 28.800781 2.667969 28.800781 L 29.332031 28.800781 C 30.066406 28.800781 30.695312 28.539062 31.214844 28.015625 C 31.738281 27.496094 32 26.867188 32 26.132812 L 32 5.867188 C 32 5.132812 31.738281 4.503906 31.214844 3.984375 Z M 29.867188 26.132812 C 29.867188 26.277344 29.8125 26.402344 29.707031 26.507812 C 29.601562 26.613281 29.476562 26.664062 29.332031 26.664062 L 2.667969 26.664062 C 2.523438 26.664062 2.398438 26.613281 2.292969 26.507812 C 2.1875 26.402344 2.132812 26.277344 2.132812 26.132812 L 2.132812 5.867188 C 2.132812 5.722656 2.1875 5.597656 2.292969 5.492188 C 2.398438 5.386719 2.523438 5.332031 2.667969 5.332031 L 29.332031 5.332031 C 29.476562 5.332031 29.601562 5.386719 29.707031 5.492188 C 29.8125 5.597656 29.867188 5.722656 29.867188 5.867188 Z M 29.867188 26.132812 "/>
<path style=" stroke:none;fill-rule:nonzero;fill:rgb(23.529412%,23.529412%,23.529412%);fill-opacity:1;" d="M 7.46875 13.867188 C 8.355469 13.867188 9.109375 13.554688 9.734375 12.933594 C 10.355469 12.3125 10.667969 11.554688 10.667969 10.667969 C 10.667969 9.777344 10.355469 9.023438 9.734375 8.398438 C 9.109375 7.777344 8.355469 7.46875 7.46875 7.46875 C 6.578125 7.46875 5.824219 7.777344 5.199219 8.398438 C 4.578125 9.023438 4.265625 9.777344 4.265625 10.667969 C 4.265625 11.554688 4.578125 12.3125 5.199219 12.933594 C 5.824219 13.554688 6.578125 13.867188 7.46875 13.867188 Z M 7.46875 13.867188 "/>
<path style=" stroke:none;fill-rule:nonzero;fill:rgb(23.529412%,23.529412%,23.529412%);fill-opacity:1;" d="M 12.265625 18.667969 L 9.601562 16 L 4.265625 21.332031 L 4.265625 24.535156 L 27.734375 24.535156 L 27.734375 17.066406 L 20.800781 10.132812 Z M 12.265625 18.667969 "/>
</g>
</svg>
